<?xml version="1.0" standalone="no"?>
<!DOCTYPE svg PUBLIC "-//W3C//DTD SVG 1.1//EN" "http://www.w3.org/Graphics/SVG/1.1/DTD/svg11.dtd" >
<svg xmlns="http://www.w3.org/2000/svg">
<metadata></metadata>
<defs>
<font id="gyrorbital_boldbold" horiz-adv-x="1433" >
<font-face units-per-em="2048" ascent="2048" descent="0" />
<missing-glyph horiz-adv-x="500" />
<glyph horiz-adv-x="2048" />
<glyph horiz-adv-x="2048" />
<glyph unicode="&#xd;" horiz-adv-x="2048" />
<glyph unicode=" " />
<glyph unicode="!" d="M205 74v20q2 3 3 8q1 -1 1 -4q0 13 8 29l418 913v926q0 34 24 58t58 24t58 -24t24 -58v-926l418 -917q12 -12 12 -29l-3 7q1 -3 3 -11v-16v-8q-4 -5 -4 -13l-4 -8q-2 -2 -4.5 -6t-4.5 -6l-16 -17q-21 -16 -37 -16l7 3q-3 -1 -11 -3h-881q-3 1 -6 3h-2q2 1 4 1 q-21 0 -32 16q1 -2 3 -5h-1l-7 5l-12 13q0 4 -4 4q0 2 -2 6t-2 6q-4 0 -4 8zM414 164h606l-303 667z" />
<glyph unicode="&#x22;" d="M410 1016v950q0 34 24 58t58 24t57.5 -24t23.5 -58v-569l271 590q0 8 4.5 16t7.5 8l4 8l17 17q2 0 6 2t6 2l8 4l16 4h21q3 -1 6 -3h2q-2 -1 -4 -1q22 0 33 -16l-4 6q2 -2 8 -6l12 -13q0 -4 4 -4q0 -2 2 -6t2 -6q4 0 4 -8l5 -17v-950q0 -34 -24 -58t-58 -24t-58 24t-24 58 v569l-271 -589q0 -8 -4.5 -16.5t-7.5 -8.5l-4 -8l-16 -17q-2 0 -6.5 -2t-6.5 -2l-8 -4l-16 -4h-21q-3 1 -6 3h-2q2 1 4 1q-22 0 -33 17l4 -6q-2 2 -8 6l-12 12q0 4 -4 4q0 2 -2 6t-2 6q-4 0 -4 8z" />
<glyph unicode="#" d="M205 82q0 17 8 33l405 1769h-331q-34 0 -58 24t-24 58t24 58t58 24h860q34 0 58 -24t24 -58q0 -17 -8 -33l-406 -1769h332q34 0 58 -24t24 -58t-24 -58t-58 -24h-860q-34 0 -58 24t-24 58zM385 164h270l394 1720h-271z" />
<glyph unicode="$" d="M205 82q0 34 24 58t58 24h348v778h-348q-34 0 -58 24t-24 58v942q0 34 24 58t58 24h860q34 0 58 -24t24 -58t-24 -58t-58 -24h-348v-778h348q34 0 58 -24t24 -58v-942q0 -34 -24 -58t-58 -24h-860q-34 0 -58 24t-24 58zM369 1106h266v778h-266v-778zM799 164h266v778 h-266v-778z" />
<glyph unicode="%" d="M205 1024v942q0 34 24 58t58 24h430q34 0 58 -24t24 -58v-569l274 602q12 31 44 43.5t63 -2.5q31 -12 43.5 -44t-2.5 -63l-377 -827h303q34 0 58 -24t24 -58v-942q0 -34 -24 -58t-58 -24h-430q-34 0 -58 24t-24 58v569l-275 -602q-12 -31 -43.5 -43.5t-62.5 2.5 q-31 12 -43.5 44t2.5 63l377 827h-303q-34 0 -58 24t-24 58zM369 1106h266v778h-266v-778zM799 164h266v778h-266v-778z" />
<glyph unicode="&#x26;" d="M205 82v942q0 17 8 33l4 8q0 2 2 4t2 4l12 12l246 267l-262 573q-12 12 -12 29l3 -7q-1 3 -3 11v16v8q4 5 4 13l4 8q2 2 4 6t4 6l17 17q21 16 36 16l-6 -3h1l10 3h868q17 0 33 -8l8 -4q4 0 8 -4l4 -4q29 -29 29 -62q0 -17 -8 -33l-4 -8q0 -2 -2.5 -4t-2.5 -4l-12 -12 l-532 -582l266 -578l139 312q12 31 44 43.5t63 -2.5q31 -12 43.5 -44t-2.5 -63l-201 -438l201 -438q15 -31 2.5 -63t-43.5 -44q-31 -15 -63 -2.5t-44 43.5l-139 311l-139 -299q0 -8 -5 -16t-8 -8l-4 -8l-16 -17q-2 0 -6 -2t-6 -2l-9 -4l-16 -4h-438q-34 0 -58 24t-24 58z M369 164h295l180 389l-291 639l-184 -201v-827zM414 1884l180 -401l369 401h-549z" />
<glyph unicode="'" d="M635 1024v942q0 34 24 58t58 24t58 -24t24 -58v-942q0 -34 -24 -58t-58 -24t-58 24t-24 58z" />
<glyph unicode="(" d="M205 1012q1 -3 3 -6v-2q1 2 1 4l-4 8v8q0 16 4 16q0 9 8 25l426 934q12 31 44 43.5t63 -2.5q31 -12 43.5 -44t-2.5 -63l-414 -909l414 -909q15 -31 2.5 -63t-43.5 -44q-31 -15 -63 -2.5t-44 43.5l-426 934q-3 3 -12 29z" />
<glyph unicode=")" d="M640.5 52q-12.5 32 2.5 63l414 909l-414 909q-15 31 -2.5 63t43.5 44q31 15 63 2.5t44 -43.5l426 -934q3 -3 12 -29q-1 3 -3 6v2q-1 -2 -1 -4l4 -8v-8q0 -16 -4 -16q0 -9 -8 -25l-426 -934q-12 -31 -44 -43.5t-63 2.5q-31 12 -43.5 44z" />
<glyph unicode="*" d="M205 1024q0 34 24 58t58 24h303l-377 827q-15 31 -2.5 63t43.5 44q31 15 62.5 2.5t43.5 -43.5l275 -602v569q0 34 24 58t58 24t58 -24t24 -58v-569l274 602q12 31 44 43.5t63 -2.5q31 -12 43.5 -44t-2.5 -63l-377 -827h303q34 0 58 -24t24 -58t-24 -58t-58 -24h-303 l377 -827q15 -31 2.5 -63t-43.5 -44q-31 -15 -63 -2.5t-44 43.5l-274 602v-569q0 -34 -24 -58t-58 -24t-58 24t-24 58v569l-275 -602q-12 -31 -43.5 -43.5t-62.5 2.5q-31 12 -43.5 44t2.5 63l377 827h-303q-34 0 -58 24t-24 58z" />
<glyph unicode="+" d="M205 1024q0 34 24 58t58 24h348v860q0 34 24 58t58 24t58 -24t24 -58v-860h348q34 0 58 -24t24 -58t-24 -58t-58 -24h-348v-860q0 -34 -24 -58t-58 -24t-58 24t-24 58v860h-348q-34 0 -58 24t-24 58z" />
<glyph unicode="," d="M210.5 52q-12.5 32 2.5 63l430 942q12 31 44 43.5t63 -2.5q31 -12 43.5 -44t-2.5 -63l-431 -942q-12 -31 -43.5 -43.5t-62.5 2.5q-31 12 -43.5 44z" />
<glyph unicode="-" d="M205 1024q0 34 24 58t58 24h860q34 0 58 -24t24 -58t-24 -58t-58 -24h-860q-34 0 -58 24t-24 58z" />
<glyph unicode="." d="M205 82q0 34 24 58t58 24h430q34 0 58 -24t24 -58t-24 -58t-58 -24h-430q-34 0 -58 24t-24 58z" />
<glyph unicode="/" d="M210.5 52q-12.5 32 2.5 63l860 1884q12 31 44 43.5t63 -2.5q31 -12 43.5 -44t-2.5 -63l-861 -1884q-12 -31 -43.5 -43.5t-62.5 2.5q-31 12 -43.5 44z" />
<glyph unicode="0" d="M205 82v1892v8q4 5 4 13l4 8q2 2 4 6t4 6l17 17q21 16 36 16l-6 -3h1l10 3h868q34 0 58 -24t24 -58v-1892v-8q-4 -5 -4 -13l-4 -8q-2 -2 -4.5 -6t-4.5 -6l-16 -17q-21 -16 -37 -16l7 3q-3 -1 -11 -3h-868q-34 0 -58 24t-24 58zM369 164h651l-651 1429v-1429zM414 1884 l651 -1429v1429h-651z" />
<glyph unicode="1" d="M205 82q0 34 24 58t58 24h348v1720h-348q-34 0 -58 24t-24 58t24 58t58 24h430q34 0 58 -24t24 -58v-1802h348q34 0 58 -24t24 -58t-24 -58t-58 -24h-860q-34 0 -58 24t-24 58z" />
<glyph unicode="2" d="M205 82v942q0 34 24 58t58 24h778v778h-778q-34 0 -58 24t-24 58t24 58t58 24h860q34 0 58 -24t24 -58v-942q0 -34 -24 -58t-58 -24h-778v-778h778q34 0 58 -24t24 -58t-24 -58t-58 -24h-860q-34 0 -58 24t-24 58z" />
<glyph unicode="3" d="M205 82q0 34 24 58t58 24h778v778h-778q-34 0 -58 24t-24 58t24 58t58 24h778v778h-778q-34 0 -58 24t-24 58t24 58t58 24h860q34 0 58 -24t24 -58v-1884q0 -34 -24 -58t-58 -24h-860q-34 0 -58 24t-24 58z" />
<glyph unicode="4" d="M205 1024v942q0 34 24 58t58 24t58 -24t24 -58v-860h696v860q0 34 24 58t58 24t58 -24t24 -58v-1884q0 -34 -24 -58t-58 -24t-58 24t-24 58v860h-778q-34 0 -58 24t-24 58z" />
<glyph unicode="5" d="M205 82q0 34 24 58t58 24h778v778h-778q-34 0 -58 24t-24 58v942q0 34 24 58t58 24h860q34 0 58 -24t24 -58t-24 -58t-58 -24h-778v-778h778q34 0 58 -24t24 -58v-942q0 -34 -24 -58t-58 -24h-860q-34 0 -58 24t-24 58z" />
<glyph unicode="6" d="M205 82v1884q0 34 24 58t58 24h860q34 0 58 -24t24 -58t-24 -58t-58 -24h-778v-778h778q34 0 58 -24t24 -58v-942q0 -34 -24 -58t-58 -24h-860q-34 0 -58 24t-24 58zM369 164h696v778h-696v-778z" />
<glyph unicode="7" d="M205 1966q0 34 24 58t58 24h860q34 0 58 -24t24 -58v-942q0 -34 -24 -58t-58 -24h-348v-860q0 -34 -24 -58t-58 -24t-58 24t-24 58v942q0 34 24 58t58 24h348v778h-778q-34 0 -58 24t-24 58z" />
<glyph unicode="8" d="M205 82v1884q0 34 24 58t58 24h860q34 0 58 -24t24 -58v-1884q0 -34 -24 -58t-58 -24h-860q-34 0 -58 24t-24 58zM369 164h696v778h-696v-778zM369 1106h696v778h-696v-778z" />
<glyph unicode="9" d="M205 82q0 34 24 58t58 24h778v778h-778q-34 0 -58 24t-24 58v942q0 34 24 58t58 24h860q34 0 58 -24t24 -58v-1884q0 -34 -24 -58t-58 -24h-860q-34 0 -58 24t-24 58zM369 1106h696v778h-696v-778z" />
<glyph unicode="&#x3c;" d="M205 1020v8q6 35 20 49l860 942q25 25 59 28t56 -19q25 -25 27.5 -59t-19.5 -56l-811 -889l811 -889q22 -22 19.5 -56t-27.5 -59q-22 -22 -56 -19t-59 28l-860 942q-20 20 -20 49z" />
<glyph unicode="=" d="M205 82q0 34 24 58t58 24h676l-734 803q-12 12 -12 16q0 -2 -1 1q-1 5 -3 11q-8 16 -8 29q0 50 41 70q-2 0 -1 0q3 2 5 4l-4 -4q4 0 12 4q16 8 29 8h860q34 0 58 -24t24 -58t-24 -58t-58 -24h-676l733 -803q13 -13 13 -16h1q1 -6 3 -12q8 -16 8 -29q0 -50 -41 -70 q2 0 1 0q-3 -2 -5 -4l4 4q-4 0 -12 -4q-16 -8 -29 -8h-860q-34 0 -58 24t-24 58zM213 987l4 -4q-4 0 -4 4zM1217 123q4 0 4 -4z" />
<glyph unicode="&#x3e;" d="M205.5 79q-2.5 34 19.5 56l811 889l-811 889q-22 22 -19.5 56t27.5 59q22 22 56 19t59 -28l860 -942q21 -21 21 -49v-8q-5 -33 -21 -49l-860 -942q-25 -25 -59 -28t-56 19q-25 25 -27.5 59z" />
<glyph unicode="?" d="M205 1024v942q0 34 24 58t58 24h860q34 0 58 -24t24 -58v-942q0 -34 -24 -58t-58 -24h-348v-860q0 -34 -24 -58t-58 -24t-58 24t-24 58v942q0 34 24 58t58 24h348v778h-696v-860q0 -34 -24 -58t-58 -24t-58 24t-24 58z" />
<glyph unicode="@" d="M205 82v1884q0 34 24 58t58 24h860q34 0 58 -24t24 -58v-942q0 -34 -24 -58t-58 -24h-430q-34 0 -58 24t-24 58t24 58t58 24h348v778h-696v-1720h778q34 0 58 -24t24 -58t-24 -58t-58 -24h-860q-34 0 -58 24t-24 58z" />
<glyph unicode="A" d="M205 82v1884q0 34 24 58t58 24h860q34 0 58 -24t24 -58v-1884q0 -34 -24 -58t-58 -24t-58 24t-24 58v860h-696v-860q0 -34 -24 -58t-58 -24t-58 24t-24 58zM369 1106h696v778h-696v-778z" />
<glyph unicode="B" d="M205 82v1884q0 34 24 58t58 24h872q3 -1 6 -3h2q-2 -1 -4 -1q22 0 33 -16l-4 6q2 -2 8 -6l12 -13q1 -4 5 -4q0 -2 2 -6t2 -6q4 0 4 -8l4 -17v-20q-2 -3 -3 -8q-1 1 -1 4q0 -13 -8 -29l-373 -815h303q34 0 58 -24t24 -58v-942q0 -34 -24 -58t-58 -24h-860q-34 0 -58 24 t-24 58zM369 164h696v778h-696v-778zM369 1106h295l356 778h-651v-778z" />
<glyph unicode="C" d="M205 82v1884q0 34 24 58t58 24h860q34 0 58 -24t24 -58t-24 -58t-58 -24h-778v-1720h778q34 0 58 -24t24 -58t-24 -58t-58 -24h-860q-34 0 -58 24t-24 58z" />
<glyph unicode="D" d="M205 82v1884q0 34 24 58t58 24h438h4q1 0 6 -2t10 -2q5 -4 9 -4q2 -2 6 -4t6 -4l16 -17q5 -3 4 -4q0 -2 9 -20l422 -926q3 -3 12 -29q-1 3 -3 6v2q-1 -2 -1 -4l4 -8v-8q0 -16 -4 -16q0 -9 -8 -25l-422 -922q0 -8 -5 -16t-8 -8l-4 -8l-16 -17q-2 0 -6 -2t-6 -2l-9 -4 l-16 -4h-438q-34 0 -58 24t-24 58zM369 164h295l393 860l-393 860h-295v-1720zM733 2044z" />
<glyph unicode="E" d="M205 82v1884q0 34 24 58t58 24h860q34 0 58 -24t24 -58t-24 -58t-58 -24h-778v-778h778q34 0 58 -24t24 -58t-24 -58t-58 -24h-778v-778h778q34 0 58 -24t24 -58t-24 -58t-58 -24h-860q-34 0 -58 24t-24 58z" />
<glyph unicode="F" d="M205 82v1884q0 34 24 58t58 24h860q34 0 58 -24t24 -58t-24 -58t-58 -24h-778v-778h778q34 0 58 -24t24 -58t-24 -58t-58 -24h-778v-860q0 -34 -24 -58t-58 -24t-58 24t-24 58z" />
<glyph unicode="G" d="M205 82v1884q0 34 24 58t58 24h860q34 0 58 -24t24 -58t-24 -58t-58 -24h-778v-1720h696v778h-348q-34 0 -58 24t-24 58t24 58t58 24h430q34 0 58 -24t24 -58v-942q0 -34 -24 -58t-58 -24h-860q-34 0 -58 24t-24 58z" />
<glyph unicode="H" d="M205 82v1884q0 34 24 58t58 24t58 -24t24 -58v-860h696v860q0 34 24 58t58 24t58 -24t24 -58v-1884q0 -34 -24 -58t-58 -24t-58 24t-24 58v860h-696v-860q0 -34 -24 -58t-58 -24t-58 24t-24 58z" />
<glyph unicode="I" d="M205 82q0 34 24 58t58 24h348v1720h-348q-34 0 -58 24t-24 58t24 58t58 24h860q34 0 58 -24t24 -58t-24 -58t-58 -24h-348v-1720h348q34 0 58 -24t24 -58t-24 -58t-58 -24h-860q-34 0 -58 24t-24 58z" />
<glyph unicode="J" d="M205 82q0 34 24 58t58 24h348v1720h-348q-34 0 -58 24t-24 58t24 58t58 24h860q34 0 58 -24t24 -58t-24 -58t-58 -24h-348v-1802q0 -34 -24 -58t-58 -24h-430q-34 0 -58 24t-24 58z" />
<glyph unicode="K" d="M205 82v1884q0 34 24 58t58 24t58 -24t24 -58v-733l716 786q25 25 59 28t56 -19q26 -25 28 -59v-7q0 -29 -20 -49l-811 -889l811 -889q20 -20 20 -49v-7q-2 -34 -28 -59q-22 -22 -56 -19t-59 28l-716 786v-733q0 -34 -24 -58t-58 -24t-58 24t-24 58z" />
<glyph unicode="L" d="M205 82v1884q0 34 24 58t58 24t58 -24t24 -58v-1802h778q34 0 58 -24t24 -58t-24 -58t-58 -24h-860q-34 0 -58 24t-24 58z" />
<glyph unicode="M" d="M205 82v1892v8q4 5 4 13l4 8q2 2 4 6t4 6l17 17q21 16 36 16l-6 -3h1l10 3h16h4q1 0 6 -2t10 -2q5 -4 9 -4q2 -2 6 -4t6 -4l16 -17q5 -3 4 -4q0 -2 9 -20l352 -774l352 770q0 8 4.5 16t7.5 8l4 8l17 17q2 0 6 2t6 2l8 4l17 4h20q3 -1 6 -3h2q-2 -1 -4 -1q22 0 33 -16 l-4 6q2 -2 8 -6l12 -13q1 -4 5 -4q0 -2 2 -6t2 -6q4 0 4 -8l4 -17v-1892q0 -34 -24 -58t-58 -24t-58 24t-24 58v1511l-270 -594q-5 -17 -17 -28q-17 -23 -49 -29l7 3q-3 -1 -11 -3h-8q-13 0 -17 4q-10 0 -36 17q-19 13 -25 36l-270 594v-1511q0 -34 -24 -58t-58 -24t-58 24 t-24 58zM303 2044z" />
<glyph unicode="N" d="M205 82v1892v8q4 5 4 13l4 8q2 2 4 6t4 6l17 17q21 16 36 16l-6 -3h1l10 3h16h4q1 0 6 -2t10 -2q5 -4 9 -4q2 -2 6 -4t6 -4l16 -17q5 -3 4 -4q0 -2 9 -20l700 -1536v1511q0 34 24 58t58 24t58 -24t24 -58v-1892v-8q-4 -5 -4 -13l-4 -8q-2 -2 -4.5 -6t-4.5 -6l-16 -17 q-21 -16 -37 -16l7 3q-3 -1 -11 -3h-16h-4q-1 0 -7 2t-10 2q-4 4 -8 4q-2 2 -6 4t-6 4l-17 17q-5 3 -4 4q0 4 -8 20l-700 1536v-1511q0 -34 -24 -58t-58 -24t-58 24t-24 58zM303 2044zM1130 4z" />
<glyph unicode="O" d="M205 82v1884q0 34 24 58t58 24h860q34 0 58 -24t24 -58v-1884q0 -34 -24 -58t-58 -24h-860q-34 0 -58 24t-24 58zM369 164h696v1720h-696v-1720z" />
<glyph unicode="P" d="M205 82v1884q0 34 24 58t58 24h860q34 0 58 -24t24 -58v-942q0 -34 -24 -58t-58 -24h-778v-860q0 -34 -24 -58t-58 -24t-58 24t-24 58zM369 1106h696v778h-696v-778z" />
<glyph unicode="Q" d="M205 82v1884q0 34 24 58t58 24h860q34 0 58 -24t24 -58v-1892v-8q-4 -5 -4 -13l-4 -8q-2 -2 -4.5 -6t-4.5 -6l-16 -17q-21 -16 -37 -16l7 3q-3 -1 -11 -3h-868q-34 0 -58 24t-24 58zM369 164h651l-377 827q-8 17 -8 34q0 14 5 29q13 32 44 44q17 8 34 8q14 0 29 -6 q32 -12 44 -43l274 -602v1429h-696v-1720z" />
<glyph unicode="R" d="M205 82v1884q0 34 24 58t58 24h872q3 -1 6 -3h2q-2 -1 -4 -1q22 0 33 -16l-4 6q2 -2 8 -6l12 -13q1 -4 5 -4q0 -2 2 -6t2 -6q4 0 4 -8l4 -17v-20q-2 -3 -3 -8q-1 1 -1 4q0 -13 -8 -29l-410 -897l414 -909q8 -17 8 -34q1 -14 -5 -29q-12 -32 -44 -44q-17 -8 -34 -8 q-14 0 -29 6q-32 12 -44 43l-409 893h-295v-860q0 -34 -24 -58t-58 -24t-58 24t-24 58zM369 1106h295l356 778h-651v-778z" />
<glyph unicode="S" d="M205 82q0 34 24 58t58 24h778v778h-778q-34 0 -58 24t-24 58v942q0 34 24 58t58 24h860q34 0 58 -24t24 -58t-24 -58t-58 -24h-778v-778h778q34 0 58 -24t24 -58v-942q0 -34 -24 -58t-58 -24h-860q-34 0 -58 24t-24 58z" />
<glyph unicode="T" d="M205 1966q0 34 24 58t58 24h860q34 0 58 -24t24 -58t-24 -58t-58 -24h-348v-1802q0 -34 -24 -58t-58 -24t-58 24t-24 58v1802h-348q-34 0 -58 24t-24 58z" />
<glyph unicode="U" d="M205 82v1884q0 34 24 58t58 24t58 -24t24 -58v-1802h696v1802q0 34 24 58t58 24t58 -24t24 -58v-1884q0 -34 -24 -58t-58 -24h-860q-34 0 -58 24t-24 58z" />
<glyph unicode="V" horiz-adv-x="1429" d="M209 1950q-3 10 -3 20q0 20 12 40q18 28 52 34q10 3 20 3q20 -1 40 -13q29 -18 35 -52l352 -1544l352 1544q7 34 35 52q19 12 39 13q10 0 20 -3q35 -6 53 -34q12 -19 12 -40q0 -10 -3 -20l-426 -1872q-7 -35 -21 -49q-2 -2 -4 -4.5t-4 -4.5h-4q-12 -12 -28 -18 q-10 -4 -18 -3q-4 0 -7 1q-22 0 -49 20q0 1 -1 2.5t-2 2t-3 2t-3 2.5v4q-16 16 -16 41z" />
<glyph unicode="W" d="M205 74v1892q0 34 24 58t58 24t58 -24t24 -58v-1511l270 594q6 18 16 28q17 22 50 29l-7 -3q3 1 11 3h8q12 0 16 -4q11 0 37 -17q19 -13 25 -36l270 -594v1511q0 34 24 58t58 24t58 -24t24 -58v-1892v-8q-4 -5 -4 -13l-4 -8q-2 -2 -4.5 -6t-4.5 -6l-16 -17 q-21 -16 -37 -16l7 3q-3 -1 -11 -3h-16h-4q-1 0 -7 2t-10 2q-4 4 -8 4q-2 2 -6 4t-6 4l-17 17q-5 3 -4 4q0 4 -8 20l-352 774l-352 -770q0 -8 -5 -16t-8 -8l-4 -8l-16 -17q-2 0 -6.5 -2t-6.5 -2l-8 -4l-16 -4h-21q-3 1 -6 3h-2q2 1 4 1q-21 0 -32 16q1 -2 3 -5h-1l-7 5 l-12 13q0 4 -4 4q0 2 -2 6t-2 6q-4 0 -4 8zM1130 4z" />
<glyph unicode="X" d="M210 52q-6 15 -5 29q0 17 8 34l414 909l-414 909q-8 17 -8 34q-1 14 5 29q12 32 44 44q17 8 34 8q14 0 28 -6q32 -12 44 -43l357 -782l356 782q12 31 44 43q15 6 29 6q17 0 34 -8q32 -12 44 -44q6 -15 5 -29q0 -17 -8 -34l-414 -909l414 -909q8 -17 8 -34q1 -14 -5 -29 q-12 -32 -44 -44q-17 -8 -34 -8q-14 0 -29 6q-32 12 -44 43l-356 782l-357 -782q-12 -31 -44 -43q-14 -6 -28 -6q-17 0 -34 8q-32 12 -44 44z" />
<glyph unicode="Y" d="M210 1996q13 32 44 44q17 8 34 8q14 0 28 -6q32 -12 44 -43l357 -782l356 782q12 31 44 43q15 6 29 6q17 0 34 -8q31 -12 44 -44q5 -15 5 -29q0 -17 -8 -34l-422 -925v-926q0 -34 -24 -58t-58 -24t-58 24t-24 58v926l-422 925q-8 17 -8 34q0 14 5 29z" />
<glyph unicode="Z" d="M205 74v20q2 3 3 8q1 -1 1 -4q0 13 8 29l803 1757h-733q-34 0 -58 24t-24 58t24 58t58 24h872q3 -1 6 -3h2q-2 -1 -4 -1q22 0 33 -16l-4 6q2 -2 8 -6l12 -13q1 -4 5 -4q0 -2 2 -6t2 -6q4 0 4 -8l4 -17v-20q-2 -3 -3 -8q-1 1 -1 4q0 -13 -8 -29l-803 -1757h733 q34 0 58 -24t24 -58t-24 -58t-58 -24h-873q-3 1 -6 3h-2q2 1 4 1q-21 0 -32 16q1 -2 3 -5h-1l-7 5l-12 13q0 4 -4 4q0 2 -2 6t-2 6q-4 0 -4 8z" />
<glyph unicode="[" d="M205 82v1884q0 34 24 58t58 24h430q34 0 58 -24t24 -58t-24 -58t-58 -24h-348v-1720h348q34 0 58 -24t24 -58t-24 -58t-58 -24h-430q-34 0 -58 24t-24 58z" />
<glyph unicode="\" d="M210.5 1996q12.5 32 43.5 44q31 15 62.5 2.5t43.5 -43.5l861 -1884q15 -31 2.5 -63t-43.5 -44q-31 -15 -63 -2.5t-44 43.5l-860 1884q-15 31 -2.5 63z" />
<glyph unicode="]" d="M635 82q0 34 24 58t58 24h348v1720h-348q-34 0 -58 24t-24 58t24 58t58 24h430q34 0 58 -24t24 -58v-1884q0 -34 -24 -58t-58 -24h-430q-34 0 -58 24t-24 58z" />
<glyph unicode="^" d="M210.5 994q-12.5 32 2.5 63l426 934q6 18 16 28q17 22 50 29l-7 -3q3 1 11 3h8q12 0 16 -4q13 0 37 -16q19 -13 25 -37l426 -934q15 -31 2.5 -63t-43.5 -44q-31 -15 -63 -2.5t-44 43.5l-356 783l-357 -783q-12 -31 -43.5 -43.5t-62.5 2.5q-31 12 -43.5 44z" />
<glyph unicode="_" d="M205 82q0 34 24 58t58 24h860q34 0 58 -24t24 -58t-24 -58t-58 -24h-860q-34 0 -58 24t-24 58z" />
<glyph unicode="`" d="M210.5 1996q12.5 32 43.5 44q31 15 62.5 2.5t43.5 -43.5l431 -942q15 -31 2.5 -63t-43.5 -44q-31 -15 -63 -2.5t-44 43.5l-430 942q-15 31 -2.5 63z" />
<glyph unicode="a" d="M205 82v1884q0 34 24 58t58 24h860q34 0 58 -24t24 -58v-1884q0 -34 -24 -58t-58 -24t-58 24t-24 58v860h-696v-860q0 -34 -24 -58t-58 -24t-58 24t-24 58zM369 1106h696v778h-696v-778z" />
<glyph unicode="b" d="M205 82v1884q0 34 24 58t58 24h872q3 -1 6 -3h2q-2 -1 -4 -1q22 0 33 -16l-4 6q2 -2 8 -6l12 -13q1 -4 5 -4q0 -2 2 -6t2 -6q4 0 4 -8l4 -17v-20q-2 -3 -3 -8q-1 1 -1 4q0 -13 -8 -29l-373 -815h303q34 0 58 -24t24 -58v-942q0 -34 -24 -58t-58 -24h-860q-34 0 -58 24 t-24 58zM369 164h696v778h-696v-778zM369 1106h295l356 778h-651v-778z" />
<glyph unicode="c" d="M205 82v1884q0 34 24 58t58 24h860q34 0 58 -24t24 -58t-24 -58t-58 -24h-778v-1720h778q34 0 58 -24t24 -58t-24 -58t-58 -24h-860q-34 0 -58 24t-24 58z" />
<glyph unicode="d" d="M205 82v1884q0 34 24 58t58 24h438h4q1 0 6 -2t10 -2q5 -4 9 -4q2 -2 6 -4t6 -4l16 -17q5 -3 4 -4q0 -2 9 -20l422 -926q3 -3 12 -29q-1 3 -3 6v2q-1 -2 -1 -4l4 -8v-8q0 -16 -4 -16q0 -9 -8 -25l-422 -922q0 -8 -5 -16t-8 -8l-4 -8l-16 -17q-2 0 -6 -2t-6 -2l-9 -4 l-16 -4h-438q-34 0 -58 24t-24 58zM369 164h295l393 860l-393 860h-295v-1720zM733 2044z" />
<glyph unicode="e" d="M205 82v1884q0 34 24 58t58 24h860q34 0 58 -24t24 -58t-24 -58t-58 -24h-778v-778h778q34 0 58 -24t24 -58t-24 -58t-58 -24h-778v-778h778q34 0 58 -24t24 -58t-24 -58t-58 -24h-860q-34 0 -58 24t-24 58z" />
<glyph unicode="f" d="M205 82v1884q0 34 24 58t58 24h860q34 0 58 -24t24 -58t-24 -58t-58 -24h-778v-778h778q34 0 58 -24t24 -58t-24 -58t-58 -24h-778v-860q0 -34 -24 -58t-58 -24t-58 24t-24 58z" />
<glyph unicode="g" d="M205 82v1884q0 34 24 58t58 24h860q34 0 58 -24t24 -58t-24 -58t-58 -24h-778v-1720h696v778h-348q-34 0 -58 24t-24 58t24 58t58 24h430q34 0 58 -24t24 -58v-942q0 -34 -24 -58t-58 -24h-860q-34 0 -58 24t-24 58z" />
<glyph unicode="h" d="M205 82v1884q0 34 24 58t58 24t58 -24t24 -58v-860h696v860q0 34 24 58t58 24t58 -24t24 -58v-1884q0 -34 -24 -58t-58 -24t-58 24t-24 58v860h-696v-860q0 -34 -24 -58t-58 -24t-58 24t-24 58z" />
<glyph unicode="i" d="M205 82q0 34 24 58t58 24h348v1720h-348q-34 0 -58 24t-24 58t24 58t58 24h860q34 0 58 -24t24 -58t-24 -58t-58 -24h-348v-1720h348q34 0 58 -24t24 -58t-24 -58t-58 -24h-860q-34 0 -58 24t-24 58z" />
<glyph unicode="j" d="M205 82q0 34 24 58t58 24h348v1720h-348q-34 0 -58 24t-24 58t24 58t58 24h860q34 0 58 -24t24 -58t-24 -58t-58 -24h-348v-1802q0 -34 -24 -58t-58 -24h-430q-34 0 -58 24t-24 58z" />
<glyph unicode="k" d="M205 82v1884q0 34 24 58t58 24t58 -24t24 -58v-733l716 786q25 25 59 28t56 -19q26 -25 28 -59v-7q0 -29 -20 -49l-811 -889l811 -889q20 -20 20 -49v-7q-2 -34 -28 -59q-22 -22 -56 -19t-59 28l-716 786v-733q0 -34 -24 -58t-58 -24t-58 24t-24 58z" />
<glyph unicode="l" d="M205 82v1884q0 34 24 58t58 24t58 -24t24 -58v-1802h778q34 0 58 -24t24 -58t-24 -58t-58 -24h-860q-34 0 -58 24t-24 58z" />
<glyph unicode="m" d="M205 82v1892v8q4 5 4 13l4 8q2 2 4 6t4 6l17 17q21 16 36 16l-6 -3h1l10 3h16h4q1 0 6 -2t10 -2q5 -4 9 -4q2 -2 6 -4t6 -4l16 -17q5 -3 4 -4q0 -2 9 -20l352 -774l352 770q0 8 4.5 16t7.5 8l4 8l17 17q2 0 6 2t6 2l8 4l17 4h20q3 -1 6 -3h2q-2 -1 -4 -1q22 0 33 -16 l-4 6q2 -2 8 -6l12 -13q1 -4 5 -4q0 -2 2 -6t2 -6q4 0 4 -8l4 -17v-1892q0 -34 -24 -58t-58 -24t-58 24t-24 58v1511l-270 -594q-5 -17 -17 -28q-17 -23 -49 -29l7 3q-3 -1 -11 -3h-8q-13 0 -17 4q-10 0 -36 17q-19 13 -25 36l-270 594v-1511q0 -34 -24 -58t-58 -24t-58 24 t-24 58zM303 2044z" />
<glyph unicode="n" d="M205 82v1892v8q4 5 4 13l4 8q2 2 4 6t4 6l17 17q21 16 36 16l-6 -3h1l10 3h16h4q1 0 6 -2t10 -2q5 -4 9 -4q2 -2 6 -4t6 -4l16 -17q5 -3 4 -4q0 -2 9 -20l700 -1536v1511q0 34 24 58t58 24t58 -24t24 -58v-1892v-8q-4 -5 -4 -13l-4 -8q-2 -2 -4.5 -6t-4.5 -6l-16 -17 q-21 -16 -37 -16l7 3q-3 -1 -11 -3h-16h-4q-1 0 -7 2t-10 2q-4 4 -8 4q-2 2 -6 4t-6 4l-17 17q-5 3 -4 4q0 4 -8 20l-700 1536v-1511q0 -34 -24 -58t-58 -24t-58 24t-24 58zM303 2044zM1130 4z" />
<glyph unicode="o" d="M205 82v1884q0 34 24 58t58 24h860q34 0 58 -24t24 -58v-1884q0 -34 -24 -58t-58 -24h-860q-34 0 -58 24t-24 58zM369 164h696v1720h-696v-1720z" />
<glyph unicode="p" d="M205 82v1884q0 34 24 58t58 24h860q34 0 58 -24t24 -58v-942q0 -34 -24 -58t-58 -24h-778v-860q0 -34 -24 -58t-58 -24t-58 24t-24 58zM369 1106h696v778h-696v-778z" />
<glyph unicode="q" d="M205 82v1884q0 34 24 58t58 24h860q34 0 58 -24t24 -58v-1892v-8q-4 -5 -4 -13l-4 -8q-2 -2 -4.5 -6t-4.5 -6l-16 -17q-21 -16 -37 -16l7 3q-3 -1 -11 -3h-868q-34 0 -58 24t-24 58zM369 164h651l-377 827q-8 17 -8 34q0 14 5 29q13 32 44 44q17 8 34 8q14 0 29 -6 q32 -12 44 -43l274 -602v1429h-696v-1720z" />
<glyph unicode="r" d="M205 82v1884q0 34 24 58t58 24h872q3 -1 6 -3h2q-2 -1 -4 -1q22 0 33 -16l-4 6q2 -2 8 -6l12 -13q1 -4 5 -4q0 -2 2 -6t2 -6q4 0 4 -8l4 -17v-20q-2 -3 -3 -8q-1 1 -1 4q0 -13 -8 -29l-410 -897l414 -909q8 -17 8 -34q1 -14 -5 -29q-12 -32 -44 -44q-17 -8 -34 -8 q-14 0 -29 6q-32 12 -44 43l-409 893h-295v-860q0 -34 -24 -58t-58 -24t-58 24t-24 58zM369 1106h295l356 778h-651v-778z" />
<glyph unicode="s" d="M205 82q0 34 24 58t58 24h778v778h-778q-34 0 -58 24t-24 58v942q0 34 24 58t58 24h860q34 0 58 -24t24 -58t-24 -58t-58 -24h-778v-778h778q34 0 58 -24t24 -58v-942q0 -34 -24 -58t-58 -24h-860q-34 0 -58 24t-24 58z" />
<glyph unicode="t" d="M205 1966q0 34 24 58t58 24h860q34 0 58 -24t24 -58t-24 -58t-58 -24h-348v-1802q0 -34 -24 -58t-58 -24t-58 24t-24 58v1802h-348q-34 0 -58 24t-24 58z" />
<glyph unicode="u" d="M205 82v1884q0 34 24 58t58 24t58 -24t24 -58v-1802h696v1802q0 34 24 58t58 24t58 -24t24 -58v-1884q0 -34 -24 -58t-58 -24h-860q-34 0 -58 24t-24 58z" />
<glyph unicode="v" horiz-adv-x="1429" d="M209 1950q-3 10 -3 20q0 20 12 40q18 28 52 34q10 3 20 3q20 -1 40 -13q29 -18 35 -52l352 -1544l352 1544q7 34 35 52q19 12 39 13q10 0 20 -3q35 -6 53 -34q12 -19 12 -40q0 -10 -3 -20l-426 -1872q-7 -35 -21 -49q-2 -2 -4 -4.5t-4 -4.5h-4q-12 -12 -28 -18 q-10 -4 -18 -3q-4 0 -7 1q-22 0 -49 20q0 1 -1 2.5t-2 2t-3 2t-3 2.5v4q-16 16 -16 41z" />
<glyph unicode="w" d="M205 74v1892q0 34 24 58t58 24t58 -24t24 -58v-1511l270 594q6 18 16 28q17 22 50 29l-7 -3q3 1 11 3h8q12 0 16 -4q11 0 37 -17q19 -13 25 -36l270 -594v1511q0 34 24 58t58 24t58 -24t24 -58v-1892v-8q-4 -5 -4 -13l-4 -8q-2 -2 -4.5 -6t-4.5 -6l-16 -17 q-21 -16 -37 -16l7 3q-3 -1 -11 -3h-16h-4q-1 0 -7 2t-10 2q-4 4 -8 4q-2 2 -6 4t-6 4l-17 17q-5 3 -4 4q0 4 -8 20l-352 774l-352 -770q0 -8 -5 -16t-8 -8l-4 -8l-16 -17q-2 0 -6.5 -2t-6.5 -2l-8 -4l-16 -4h-21q-3 1 -6 3h-2q2 1 4 1q-21 0 -32 16q1 -2 3 -5h-1l-7 5 l-12 13q0 4 -4 4q0 2 -2 6t-2 6q-4 0 -4 8zM1130 4z" />
<glyph unicode="x" d="M210 52q-6 15 -5 29q0 17 8 34l414 909l-414 909q-8 17 -8 34q-1 14 5 29q12 32 44 44q17 8 34 8q14 0 28 -6q32 -12 44 -43l357 -782l356 782q12 31 44 43q15 6 29 6q17 0 34 -8q32 -12 44 -44q6 -15 5 -29q0 -17 -8 -34l-414 -909l414 -909q8 -17 8 -34q1 -14 -5 -29 q-12 -32 -44 -44q-17 -8 -34 -8q-14 0 -29 6q-32 12 -44 43l-356 782l-357 -782q-12 -31 -44 -43q-14 -6 -28 -6q-17 0 -34 8q-32 12 -44 44z" />
<glyph unicode="y" d="M210 1996q13 32 44 44q17 8 34 8q14 0 28 -6q32 -12 44 -43l357 -782l356 782q12 31 44 43q15 6 29 6q17 0 34 -8q31 -12 44 -44q5 -15 5 -29q0 -17 -8 -34l-422 -925v-926q0 -34 -24 -58t-58 -24t-58 24t-24 58v926l-422 925q-8 17 -8 34q0 14 5 29z" />
<glyph unicode="z" d="M205 74v20q2 3 3 8q1 -1 1 -4q0 13 8 29l803 1757h-733q-34 0 -58 24t-24 58t24 58t58 24h872q3 -1 6 -3h2q-2 -1 -4 -1q22 0 33 -16l-4 6q2 -2 8 -6l12 -13q1 -4 5 -4q0 -2 2 -6t2 -6q4 0 4 -8l4 -17v-20q-2 -3 -3 -8q-1 1 -1 4q0 -13 -8 -29l-803 -1757h733 q34 0 58 -24t24 -58t-24 -58t-58 -24h-873q-3 1 -6 3h-2q2 1 4 1q-21 0 -32 16q1 -2 3 -5h-1l-7 5l-12 13q0 4 -4 4q0 2 -2 6t-2 6q-4 0 -4 8z" />
<glyph unicode="{" d="M205 82v1884q0 34 24 58t58 24h442q3 -1 6 -3h2q-2 -1 -4 -1q22 0 33 -16l-4 6q2 -2 8 -6l12 -13q0 -4 4 -4q0 -2 2.5 -6t2.5 -6q4 0 4 -8l4 -17v-20q-2 -3 -3 -8q-1 1 -1 4q0 -11 -9 -29l-409 -897l409 -901q13 -13 13 -29l-3 7q1 -3 3 -11v-16v-8q-4 -5 -4 -13l-4 -8 q-2 -2 -4.5 -6t-4.5 -6l-16 -17q-21 -16 -37 -16l7 3q-3 -1 -11 -3h-438q-34 0 -58 24t-24 58zM369 164h221l-221 487v-487zM369 1397l221 487h-221v-487z" />
<glyph unicode="|" d="M635 82v1884q0 34 24 58t58 24t58 -24t24 -58v-1884q0 -34 -24 -58t-58 -24t-58 24t-24 58z" />
<glyph unicode="}" d="M635 74v20q2 3 3 8q1 -1 1 -4q0 13 8 29l410 897l-410 901q-12 12 -12 29l3 -7q-1 3 -3 11v16v8q4 5 4 13l4 8q2 2 4 6t4 6l17 17q21 16 37 16l-7 -3q3 1 11 3h438q34 0 58 -24t24 -58v-1884q0 -34 -24 -58t-58 -24h-442q-3 2 -7 3h-1q1 1 3 1q-21 0 -32 16l4 -6 q-2 2 -8 6l-13 13q0 4 -4 4q0 2 -2 6t-2 6q-4 0 -4 8zM844 164h221v487zM844 1884l221 -487v487h-221z" />
<glyph unicode="~" d="M205 1024v942q0 34 24 58t58 24h430q34 0 58 -24t24 -58v-860h266v860q0 34 24 58t58 24t58 -24t24 -58v-942q0 -34 -24 -58t-58 -24h-430q-34 0 -58 24t-24 58v860h-266v-860q0 -34 -24 -58t-58 -24t-58 24t-24 58z" />
<glyph unicode="&#xa0;" />
<glyph unicode="&#xa2;" d="M205 82v1884q0 34 24 58t58 24h860q34 0 58 -24t24 -58t-24 -58t-58 -24h-348v-1720h348q34 0 58 -24t24 -58t-24 -58t-58 -24h-860q-34 0 -58 24t-24 58zM369 164h266v1720h-266v-1720z" />
<glyph unicode="&#xa3;" d="M205 82v1884q0 34 24 58t58 24h860q34 0 58 -24t24 -58v-942q0 -34 -24 -58t-58 -24t-58 24t-24 58v860h-696v-778h348q34 0 58 -24t24 -58t-24 -58t-58 -24h-348v-778h778q34 0 58 -24t24 -58t-24 -58t-58 -24h-860q-34 0 -58 24t-24 58z" />
<glyph unicode="&#xa5;" d="M205 1024q0 34 24 58t58 24h303l-377 827q-15 31 -2.5 63t43.5 44q31 15 62.5 2.5t43.5 -43.5l357 -782l356 782q12 31 44 43.5t63 -2.5q31 -12 43.5 -44t-2.5 -63l-377 -827h303q34 0 58 -24t24 -58t-24 -58t-58 -24h-348v-860q0 -34 -24 -58t-58 -24t-58 24t-24 58v860 h-348q-34 0 -58 24t-24 58z" />
<glyph unicode="&#xab;" d="M205 1012l3 -7q-1 3 -3 11v16v8q4 5 4 13l4 8q4 4 4 8l426 930q12 31 44 43.5t63 -2.5q31 -12 43.5 -44t-2.5 -63l-377 -827h250l409 893q12 31 44 43.5t63 -2.5q31 -12 43.5 -44t-2.5 -63l-414 -909l414 -909q15 -31 2.5 -63t-43.5 -44q-31 -15 -63 -2.5t-44 43.5 l-409 893h-250l377 -827q15 -31 2.5 -63t-43.5 -44q-31 -15 -63 -2.5t-44 43.5l-426 934q-4 4 -4 8q-4 0 -4 8q-4 4 -4 13z" />
<glyph unicode="&#xac;" d="M205 1024q0 34 24 58t58 24h860q34 0 58 -24t24 -58v-942q0 -34 -24 -58t-58 -24t-58 24t-24 58v860h-778q-34 0 -58 24t-24 58z" />
<glyph unicode="&#xad;" d="M205 1024q0 34 24 58t58 24h860q34 0 58 -24t24 -58t-24 -58t-58 -24h-860q-34 0 -58 24t-24 58z" />
<glyph unicode="&#xb1;" d="M205 82q0 34 24 58t58 24h348v778h-348q-34 0 -58 24t-24 58t24 58t58 24h348v860q0 34 24 58t58 24t58 -24t24 -58v-860h348q34 0 58 -24t24 -58t-24 -58t-58 -24h-348v-778h348q34 0 58 -24t24 -58t-24 -58t-58 -24h-860q-34 0 -58 24t-24 58z" />
<glyph unicode="&#xb6;" d="M205 1024v942q0 34 24 58t58 24h860q34 0 58 -24t24 -58v-1884q0 -34 -24 -58t-58 -24t-58 24t-24 58v860h-266v-860q0 -34 -24 -58t-58 -24t-58 24t-24 58v860h-348q-34 0 -58 24t-24 58zM369 1106h266v778h-266v-778zM799 1106h266v778h-266v-778z" />
<glyph unicode="&#xbb;" d="M210.5 52q-12.5 32 2.5 63l414 909l-414 909q-15 31 -2.5 63t43.5 44q31 15 62.5 2.5t43.5 -43.5l410 -893h250l-377 827q-15 31 -2.5 63t43.5 44q31 15 63 2.5t44 -43.5l426 -934q4 -4 4 -8q4 0 4 -8q0 -2 2 -6.5t2 -6.5l-3 7q1 -3 3 -11v-16v-8q-4 -5 -4 -13l-4 -8 q-4 -4 -4 -8l-426 -930q-12 -31 -44 -43.5t-63 2.5q-31 12 -43.5 44t2.5 63l377 827h-250l-410 -893q-12 -31 -43.5 -43.5t-62.5 2.5q-31 12 -43.5 44z" />
<glyph unicode="&#xc6;" d="M205 82v1884q0 34 24 58t58 24h860q34 0 58 -24t24 -58t-24 -58t-58 -24h-348v-778h348q34 0 58 -24t24 -58t-24 -58t-58 -24h-348v-778h348q34 0 58 -24t24 -58t-24 -58t-58 -24h-430q-34 0 -58 24t-24 58v860h-266v-860q0 -34 -24 -58t-58 -24t-58 24t-24 58zM369 1106 h266v778h-266v-778z" />
<glyph unicode="&#xe6;" d="M205 82v1884q0 34 24 58t58 24h860q34 0 58 -24t24 -58t-24 -58t-58 -24h-348v-778h348q34 0 58 -24t24 -58t-24 -58t-58 -24h-348v-778h348q34 0 58 -24t24 -58t-24 -58t-58 -24h-430q-34 0 -58 24t-24 58v860h-266v-860q0 -34 -24 -58t-58 -24t-58 24t-24 58zM369 1106 h266v778h-266v-778z" />
<glyph unicode="&#x2000;" horiz-adv-x="1024" />
<glyph unicode="&#x2001;" horiz-adv-x="2048" />
<glyph unicode="&#x2002;" horiz-adv-x="1024" />
<glyph unicode="&#x2003;" horiz-adv-x="2048" />
<glyph unicode="&#x2004;" horiz-adv-x="682" />
<glyph unicode="&#x2005;" horiz-adv-x="512" />
<glyph unicode="&#x2006;" horiz-adv-x="341" />
<glyph unicode="&#x2007;" horiz-adv-x="341" />
<glyph unicode="&#x2008;" horiz-adv-x="256" />
<glyph unicode="&#x2009;" horiz-adv-x="409" />
<glyph unicode="&#x200a;" horiz-adv-x="113" />
<glyph unicode="&#x2010;" d="M205 1024q0 34 24 58t58 24h860q34 0 58 -24t24 -58t-24 -58t-58 -24h-860q-34 0 -58 24t-24 58z" />
<glyph unicode="&#x2011;" d="M205 1024q0 34 24 58t58 24h860q34 0 58 -24t24 -58t-24 -58t-58 -24h-860q-34 0 -58 24t-24 58z" />
<glyph unicode="&#x2012;" d="M205 1024q0 34 24 58t58 24h860q34 0 58 -24t24 -58t-24 -58t-58 -24h-860q-34 0 -58 24t-24 58z" />
<glyph unicode="&#x2013;" d="M205 1024q0 34 24 58t58 24h860q34 0 58 -24t24 -58t-24 -58t-58 -24h-860q-34 0 -58 24t-24 58z" />
<glyph unicode="&#x2014;" horiz-adv-x="2457" d="M205 1024q0 34 48 58t116 24h1720q68 0 116 -24t48 -58t-48 -58t-116 -24h-1720q-68 0 -116 24t-48 58z" />
<glyph unicode="&#x202f;" horiz-adv-x="409" />
<glyph unicode="&#x205f;" horiz-adv-x="512" />
<glyph unicode="&#xe000;" horiz-adv-x="2048" d="M0 0v2048h2048v-2048h-2048z" />
</font>
</defs>
</svg>
